<?xml version="1.0"?><svg width="1859.934" height="1868.935" xmlns="http://www.w3.org/2000/svg">
 <title>Oktoberfest Beer Mug</title>
 <g>
  <title>Layer 1</title>
  <g id="Layer_1">
   <g id="svg_99"/>
   <g id="svg_120">
    <path id="svg_121" d="m1235.864258,1435.090088c-7.446655,0 -15.155396,-0.180542 -22.867554,-0.54541l-12.966431,-0.617432l-1.796265,-147.040771l15.812622,2.195435c0.010986,0 4.745483,0.614136 12.468018,0.614136c40.218628,0 135.343994,-15.56958 151.089966,-159.537964c3.055176,-135.901123 -1.965576,-352.340515 -28.326904,-393.326477l-1.074707,-1.671448l-0.572876,-1.913635c-0.130737,-0.458496 -15.516113,-49.203674 -50.501099,-49.203674c-22.853149,0 -51.700317,19.887878 -83.421631,57.504517l-3.037354,3.603821l-43.372437,9.341064l-15.459595,-214.518921l10.00708,-3.534851c2.124634,-0.747192 52.619141,-18.327942 114.537842,-18.327942c76.989868,0 208.440308,29.655212 223.705322,228.26123c1.135132,12.900879 28.210327,320.497253 19.143677,425.808533c-0.03894,10.449585 -2.330078,111.510864 -74.605957,185.953735c-49.581665,51.059448 -119.824585,76.956055 -208.761719,76.956055z" fill="#EFF3FA"/>
    <path id="svg_122" d="m1276.379517,532.167358c87.067139,0 196.234131,36.56604 209.964478,215.298279c0,0 28.33728,319.446838 19.108276,424.086121c0,0 2.114624,249.474487 -269.588013,249.474487c-7.217163,0 -14.625,-0.17688 -22.227661,-0.53418l-1.435303,-117.476196c0,0 5.388794,0.747559 14.313354,0.747559c39.426758,0 147.858032,-14.583862 164.848389,-172.666382c0,0 7.783203,-342.357117 -30.568237,-401.984924c0,0 -17.825073,-59.126099 -63.669678,-59.133057c-23.482544,0 -54.302246,15.500793 -93.855957,62.389771l-23.393921,5.037048l-13.532471,-187.67572c0.01062,-0.003601 49.734009,-17.555725 110.036743,-17.562805m0.017822,-28.131409l0,28.131409l-0.010864,-28.131409c-64.206299,0.00708 -116.825684,18.320923 -119.046509,19.111633l-20.024292,7.066467l1.559448,21.581177l13.532471,187.67572l2.308838,32.100159l30.844727,-6.644226l23.397461,-5.033447l9.10144,-1.960388l6.071655,-7.207153c38.623657,-45.791504 62.304321,-52.619507 72.986572,-52.619507c24.366577,0 37.266113,39.024963 37.389526,39.418579l1.159912,3.820007l2.107544,3.206726c4.618164,7.185364 20.095215,43.484131 25.155273,208.787964c2.605713,85.275452 1.138184,165.155823 0.911865,175.887024c-14.161499,127.355103 -92.055786,146.408936 -137.327759,146.408936c-6.654419,0 -10.713501,-0.502197 -10.766602,-0.512573l-31.643799,-4.387573l0.547729,32.634155l1.432251,117.475708l0.325439,26.513916l25.936646,1.231445c7.931152,0.37915 15.837646,0.570557 23.503418,0.570557c92.746094,0 166.273682,-27.293701 218.549927,-81.137207c74.623901,-76.862061 78.435669,-180.714844 78.58728,-195.172363c8.985229,-106.679443 -17.842285,-412.379944 -19.20752,-427.751282c-16.155762,-209.748413 -155.654175,-241.064453 -237.38208,-241.064453l0,0z" fill="#000000"/>
    <path id="svg_123" d="m703.624939,1661.047241c-104.612488,0 -358.490692,-12.832397 -456.391693,-131.713135c-2.086533,-2.545654 -3.235489,-5.762573 -3.225235,-9.088135l1.930771,-917.46698c0.014252,-7.015686 5.088593,-12.951416 11.89856,-13.905273l909.304138,-127.343811c0.619141,-0.086945 1.245117,-0.133514 1.863647,-0.133514c3.196533,0 6.322632,1.137054 8.815308,3.253265c2.973999,2.527649 4.773438,6.221375 4.943848,10.16098l45.953491,1018.824249c0.137695,3.285767 -0.848633,6.535034 -2.790039,9.157104c-33.383179,44.885132 -147.29187,150.102051 -483.2052,157.522217l0,0c0.10614,0.014404 -14.663696,0.733032 -39.097595,0.733032z" fill="#EFF3FA"/>
    <path id="svg_124" d="m1169.005493,475.474884l45.946655,1018.824554c-30.423462,40.924194 -140.053955,144.625 -472.529968,151.968872c-0.724792,0.036255 -15.158875,0.711426 -38.800659,0.711426c-97.385193,0 -350.983734,-11.50769 -445.840179,-126.701294l1.930695,-917.46344l909.293457,-127.340179m0,-28.127563c-1.248535,0 -2.496704,0.086395 -3.741211,0.26004l-909.297119,127.339966c-13.624054,1.910217 -23.779572,13.771606 -23.807724,27.814026l-1.927261,917.462952c-0.014236,6.643799 2.280869,13.082031 6.463852,18.162354c45.077072,54.739014 125.093063,93.789307 237.828049,116.067749c90.988251,17.977783 182.595367,20.660278 229.101349,20.660278c22.456848,0 36.993225,-0.606323 39.712585,-0.725342c341.673218,-7.611572 458.962524,-116.566528 493.548096,-163.068848c3.903809,-5.246338 5.873413,-11.728027 5.576538,-18.303223l-45.940063,-1018.831757c-0.357178,-7.896301 -3.942505,-15.26944 -9.886597,-20.321014c-4.97522,-4.242859 -11.233887,-6.517212 -17.630493,-6.517212l0,0l0,0.000031z" fill="#000000"/>
    <path id="svg_125" d="m729.90448,1863.224365c-103.007141,0 -358.285187,-10.352173 -503.654083,-106.264771c-1.053604,-0.682129 -2.00119,-1.523804 -2.828552,-2.476685c-4.08075,-4.697632 -38.422546,-50.521729 9.858322,-211.669678c1.729019,-5.77356 6.873871,-9.785156 12.793335,-9.947632c0,0 4.158051,-0.111816 4.281815,-0.111816c3.705643,0 7.263214,1.52356 9.858246,4.235474c17.135773,17.93811 39.013031,34.157593 65.020233,48.213989c119.163055,64.416382 300.623627,71.377686 373.10495,71.377686c25.812805,0 42.396545,-0.834351 44.206848,-0.928345c307.582825,-6.798584 427.057312,-93.200195 470.946106,-144.093994c2.627441,-3.058228 6.410767,-4.777222 10.3396,-4.777222c0.593872,0 1.202271,0.043457 1.802856,0.115601c4.547485,0.614136 8.50061,3.506226 10.53772,7.716553c7.181641,14.814941 68.495728,146.78418 10.830688,215.912109c-0.304321,0.367798 -0.629272,0.71814 -0.975952,1.057617c-5.010498,4.88916 -126.885986,119.859497 -480.234985,131.13208c-0.438538,0.014282 -13.479309,0.52356 -35.869385,0.52356c-0.006897,-0.014526 -0.014221,-0.014526 -0.017761,-0.014526z" fill="#EFF3FA"/>
    <path id="svg_126" d="m1222.827637,1520.838501c6.021973,12.424561 64.825806,138.039063 12.690796,200.559448c0,0 -119.022095,116.01709 -471.161499,127.246216c0,0 -13.062378,0.520264 -35.451965,0.520264c-94.036438,0 -352.359253,-9.131714 -496.178955,-104.015381c0,0 -34.688492,-39.956543 12.722549,-198.219604l3.907257,-0.107788c19.055099,19.934692 42.368118,36.720825 68.428482,50.809814c119.775146,64.748169 296.992676,73.006348 379.558228,73.006348c25.423706,0 41.88031,-0.780151 44.910583,-0.938721c314.350647,-6.950928 436.505432,-97.746948 480.574524,-148.860596m-0.014282,-28.128052c-7.856934,0 -15.395508,3.434082 -20.671143,9.542847c-19.373657,22.477539 -57.346802,55.180176 -128.247437,83.372681c-85.907227,34.154297 -197.690674,52.980469 -332.249878,55.948608c-0.268494,0.007202 -0.537415,0.014648 -0.809814,0.028809c-1.774902,0.0979 -18.030029,0.910156 -43.503357,0.910156c-71.455566,0 -250.228607,-6.799194 -366.665466,-69.738525c-24.734406,-13.377563 -45.466095,-28.716187 -61.608154,-45.6073c-5.187042,-5.426514 -12.301819,-8.481567 -19.709656,-8.481567c-0.24736,0 -0.501984,0.003418 -0.756638,0.01123l-3.903717,0.10437c-11.827972,0.332153 -22.128128,8.340942 -25.582993,19.891724c-48.188797,160.851563 -17.538422,212.969482 -6.994247,225.112183c1.654846,1.913574 3.564438,3.589111 5.664749,4.979126c148.448273,97.934814 406.894989,108.510498 511.125519,108.510498c22.662476,0 35.964722,-0.52002 36.516296,-0.53772c358.345886,-11.428345 483.937195,-129.973145 489.110657,-135.010132c0.678711,-0.667725 1.336548,-1.368164 1.948242,-2.104492c62.078003,-74.414307 3.426514,-205.711914 -8.963867,-231.276001c-4.073486,-8.405884 -11.97644,-14.179565 -21.085083,-15.410889c-1.19873,-0.17334 -2.408447,-0.245605 -3.614014,-0.245605l0,0z" fill="#000000"/>
    <path id="svg_127" d="m1138.316162,1390.800537c0.721313,51.550659 -37.202148,107.755859 -84.29126,124.921387c-188.762085,68.792114 -386.668579,76.111084 -580.830688,28.860474c-23.122131,-5.621826 -46.353485,-11.326782 -68.97702,-18.844482c-47.552094,-15.786011 -87.070099,-70.893433 -87.805603,-122.454834l-6.549011,-459.396301c-0.724609,-51.557739 -1.937561,-135.937683 -2.666199,-187.509644l-6.548431,-459.392517c-0.731995,-51.565262 39.532318,-94.377792 89.478394,-95.13237l229.320435,-3.484665c49.946106,-0.761536 131.687927,-2.000122 181.630066,-2.758286l229.313538,-3.481155c49.960449,-0.758087 68.71875,40.812256 69.450684,92.373901l24.716797,459.392303c0.721313,51.565247 6.470459,135.945251 7.206055,187.51001l6.552246,459.396179z" fill="#FFCD49"/>
    <path id="svg_128" d="m1066.479126,1220.189087c3.161377,51.384399 2.991211,96.963257 -34.288574,106.462891c-39.493652,10.063354 -43.634399,-39.682129 -44.719849,-91.370117c-2.882019,-136.576538 -1.722168,-273.579529 -1.941101,-410.27887c-0.07428,-45.614502 -0.191345,-120.241333 -0.265503,-165.852844l-0.629211,-406.3396c-0.070862,-45.600281 3.829468,-83.466049 8.663086,-84.141373l22.21344,-3.083572c4.844055,-0.660645 12.754211,-1.758163 17.605286,-2.436935l22.209717,-3.072952c4.83728,-0.675323 6.651611,36.100357 6.725952,81.700317l2.389893,406.336273c0.074219,45.614197 0.633057,120.237671 0.696655,165.852234c0.127319,83.112732 -0.063599,166.232361 0.251343,249.344421c0.190552,51.933472 -2.185669,104.455322 1.025391,156.078369c0.02063,0.25647 0.03833,0.5271 0.063477,0.801758z" fill="#F89939"/>
    <path id="svg_129" d="m1056.765625,570.199402c0,0 142.917725,130.965515 197.888794,-112.258362c0,0 87.947632,-37.425781 29.310059,-119.754181c0,0 29.312988,-97.2845 -54.967285,-86.058594c0,0 10.993408,-127.224838 -109.93811,-104.776657c0,0 -40.306641,-74.847252 -117.260803,-14.97023c0,0 16.032471,-73.685047 -18.319824,-113.616098c0,0 -135.595093,-140.841429 -282.169739,8.84268c0,0 -76.957275,-59.877232 -139.251221,22.455212c0,0 -62.293518,-44.906911 -120.931183,29.936829c0,0 -62.293884,-104.787689 -131.924988,0c0,0 -164.904892,-22.455299 -142.917938,145.939194c0,0 -128.254345,71.088547 -62.290092,164.646805c0,0 -80.062063,59.498138 -21.986977,123.487915c0,0 -48.892357,71.976563 43.977356,130.969116c0,0 14.656754,78.580627 73.290466,56.128845c0,0 -18.31633,119.743652 58.630585,138.46167c0,0 14.65683,254.449585 168.571808,231.998413c0,0 117.260834,3.736938 139.25119,-160.906006c0,0 135.591919,-82.325256 69.627625,-194.590759c0,0 128.165833,42.624451 172.143127,-80.862915c0,0 88.852722,57.977783 125.485718,-9.377014c-0.010315,-0.003601 112.780823,67.784729 123.781433,-55.695862z" fill="#FFFFFF"/>
    <path id="svg_130" d="m407.690002,1087.099976c-132.338989,0 -158.367004,-190.108948 -162.763,-236.744995c-58.813995,-21.492004 -62.865997,-95.157959 -61.119003,-131.265991c-1.524002,0.11499 -3.037003,0.176025 -4.526001,0.176025c-44.199997,0 -60.833,-47.98999 -65.416,-65.444031c-31.743095,-21.368958 -50.784496,-46.828003 -56.636299,-75.724976c-5.4702,-27.030029 2.294601,-49.984009 8.111404,-62.332031c-13.832802,-18.154968 -19.844204,-37.688965 -17.888504,-58.18399c3.040901,-31.853973 25.063202,-57.154999 38.3582,-69.730988c-13.525002,-23.582001 -17.601898,-47.875 -12.1213,-72.38501c11.085304,-49.477997 58.559494,-84.494995 77.880508,-96.947983c-4.448013,-46.561005 4.787994,-83.535004 27.498993,-110.031006c32.496994,-37.8909 83.790009,-43.552597 111.480011,-43.552597c4.66098,0 8.716003,0.155197 11.951996,0.357498c22.007996,-30.482002 46.144989,-45.932302 71.833984,-45.932302c30.752014,0 54.733002,22.559801 67.757019,38.356901c27.742981,-28.611601 55.574982,-35.085501 75.054962,-35.085501c17.567017,0 32.188049,5.1054 41.565002,9.543001c22.882019,-25.997711 50.537048,-39.660461 80.575012,-39.660461c26.114014,0 48.104004,10.1786 60.247009,17.26292c45.224976,-43.23156 94.015015,-65.13446 145.177002,-65.13446c85.71698,0 146.051025,61.635741 148.583008,64.260981c0.179993,0.18768 0.349976,0.38256 0.52002,0.58095c23.805969,27.665871 26.635986,67.97617 25.165955,95.523067c13.48999,-6.586296 26.77002,-9.904694 39.709961,-9.904694c34.990112,0 57.240112,23.776695 66.900024,36.9627c38.930054,-5.246002 69.070068,3.929001 89.660034,26.897003c21.900024,24.422989 26.790039,58.356995 27.619995,78.201996c26.369995,0.317001 40.449951,12.125 47.630005,22.057999c17.73999,24.531006 11.97998,60.881012 8.410034,76.279999c17.359985,26.561005 22.859985,52.01001 16.339966,75.731995c-8.609985,31.334991 -35.959961,49.468018 -48.709961,56.415009c-29.960083,125.271027 -85.23999,151.824982 -126.700073,151.824982c-29.5,0 -56.079956,-13.294983 -73.069946,-24.329956c-12.810059,54.522949 -49.450012,63.386963 -71.877991,63.386963c-0.003052,0 -0.003052,0 -0.003052,0c-22.428955,0 -44.312988,-8.369019 -57.219971,-14.421021c-14.239014,18.653015 -34.479004,28.427002 -59.237976,28.427002c-24.890015,0 -49.310059,-9.940002 -64.115051,-17.395996c-24.344971,53.147034 -69.72998,82.173035 -129.322998,82.173035c-9.252991,0 -17.820984,-0.710999 -25.281982,-1.697021c8.515015,23.960999 9.797974,48.247009 3.807983,72.515015c-14.497009,58.692993 -67.424011,98.937988 -85.092957,110.97998c-24.392029,160.829956 -136.819031,166.52002 -151.065033,166.599976c-6.669006,0.910034 -13.277985,1.390015 -19.67099,1.390015zm-208.430008,-399.994995c3.119003,0 6.206009,1.079041 8.695007,3.158997c3.804993,3.158997 5.671997,8.132019 4.912003,13.075012c-0.156006,1.054016 -15.391998,107.134033 48.21701,122.609985c5.904999,1.433044 10.200989,6.655029 10.557983,12.843018c0.123993,2.207031 14.299988,220.177979 136.041016,220.177979c5.431,0 11.095978,-0.419922 16.834991,-1.26001c0.777008,-0.109985 1.595001,-0.159912 2.376007,-0.130005c10.975983,0 105.871979,-4.179932 125.167999,-148.753967c0.56897,-4.242004 3.005005,-7.997009 6.607971,-10.188965c0.626038,-0.379028 63.949036,-39.614014 78.164001,-97.501038c6.332031,-25.784973 1.856018,-51.947998 -13.307007,-77.756958c-2.958984,-5.031006 -2.544983,-11.411011 1.040039,-16c3.578979,-4.58905 9.578979,-6.420044 15.034973,-4.607056c0.166016,0.057007 19.866028,6.416016 45.39502,6.416016c54.083008,0 90.935974,-26.484985 109.534973,-78.718018c1.429016,-4.007996 4.565002,-7.148987 8.528992,-8.517944c3.953003,-1.372009 8.313049,-0.830017 11.832031,1.469971c0.299988,0.198975 32.721985,20.989014 63.538025,20.989014c19.323975,0 33.220947,-8.286011 42.494995,-25.335999c1.807983,-3.315002 4.841003,-5.752991 8.419983,-6.746033c3.575012,-1 7.403992,-0.47998 10.607971,1.452026c0.261047,0.151978 28.182007,16.620972 54.942017,16.620972c0.039001,0 0.078003,0 0.117004,0c10.687012,0 42.576965,-0.220947 48.027039,-61.462952c0.47998,-5.300049 3.839966,-9.865051 8.679932,-11.814026c4.849976,-1.953979 10.369995,-0.934998 14.23999,2.617981c0.330078,0.30304 35.220093,31.619019 73.890015,31.619019c58.280029,0 87.300049,-74.27002 101.380005,-136.569c1,-4.420013 4.02002,-8.074005 8.119995,-9.821991c0.280029,-0.123016 32.030029,-14.161011 39.440063,-41.466003c4.5,-16.631012 -0.869995,-35.821991 -15.970093,-57.020996c-2.549927,-3.580994 -3.299927,-8.182007 -2.019897,-12.406006c3.209961,-10.786011 9.029907,-42.315002 -2.470093,-58.162018c-6.579956,-9.056 -19.140015,-12.276978 -37.549927,-9.824982c-4.160034,0.566986 -8.310059,-0.84201 -11.320068,-3.798004c-3.01001,-2.950989 -4.549927,-7.138992 -4.189941,-11.382004c0.040039,-0.432999 3.52002,-46.465988 -20.400024,-73.024002c-11.579956,-12.860992 -27.579956,-19.107986 -48.920044,-19.107986c-7.519897,0 -15.73999,0.819992 -24.419922,2.429993c-5.840088,1.076996 -11.680054,-1.757996 -14.530029,-7.059006c-0.670044,-1.201996 -17.380005,-30.899994 -48.290039,-30.899994c-14.880005,0 -31.219971,6.845993 -48.559937,20.339005c-4.600037,3.578003 -10.905029,3.837997 -15.77301,0.664001c-4.872986,-3.188004 -7.273987,-9.131012 -6.019043,-14.901001c0.127014,-0.650009 13.942017,-66.824505 -14.935974,-100.938805c-3.978027,-3.9788 -57.255005,-55.627201 -128.700012,-55.627201c-46.607971,0 -91.575012,21.790881 -133.677979,64.773102c-4.880005,4.979298 -12.598999,5.509998 -18.083984,1.246098c-0.20105,-0.159298 -24.005005,-18.148199 -53.662048,-18.148199c-24.931946,0 -47.254944,12.792902 -66.338989,38.007299c-4.511963,5.960899 -12.820984,7.239098 -18.842957,2.895702c-0.085022,-0.0616 -15.608032,-10.7854 -36.959045,-10.7854c-23.54599,0 -45.510986,12.7962 -65.270996,38.017796c-2.810974,3.585106 -7.164001,5.5532 -11.646973,5.249405c-4.491028,-0.2957 -8.547028,-2.805 -10.887024,-6.737503c-0.216003,-0.372002 -24.253998,-39.797497 -54.996002,-39.797497c-17.856995,0 -35.940002,13.591 -53.746979,40.3969c-2.938019,4.4086 -8.052002,6.745102 -13.221008,6.044701c-0.042999,-0.003403 -6.694,-0.870102 -16.828003,-0.870102c-23.019012,0 -65.427002,4.415596 -90.748001,33.951698c-18.740997,21.859009 -25.423996,54.512009 -19.869003,97.061005c0.757004,5.780991 -2.064987,11.434998 -7.082001,14.218994c-0.594986,0.335999 -61.46299,34.756989 -72.318993,83.516998c-4.532799,20.354004 0.254997,40.154999 14.632004,60.552002c4.431,6.278992 3.054993,15.035004 -3.065002,19.59201c-0.326004,0.233978 -34.211502,26.007996 -37.2416,58.457977c-1.425201,15.313019 4.2145,29.72702 17.248398,44.095001c4.398903,4.845001 4.900902,12.150024 1.216301,17.572998c-0.106102,0.161987 -14.840599,22.827026 -9.034203,50.673035c4.657005,22.35498 21.142105,42.653992 48.970108,60.335999c3.263992,2.075989 5.529999,5.451965 6.25499,9.307983c0.085007,0.455017 9.671005,48.731018 39.770004,48.731018c4.610001,0 9.709,-1.050049 15.143997,-3.130005c1.556,-0.618042 3.199997,-0.910034 4.822998,-0.910034z" fill="#000000"/>
    <path id="svg_131" d="m597.820618,1399.318359c20.558228,0 20.558228,-32.561523 0,-32.561523c-20.568848,0.00354 -20.568848,32.561523 0,32.561523l0,0z" fill="#F89939"/>
    <path id="svg_132" d="m689.643677,1164.907959c20.561584,0 20.561584,-32.561401 0,-32.561401s-20.561646,32.561401 0,32.561401l0,0z" fill="#F89939"/>
    <path id="svg_133" d="m809.012146,864.865356c20.558167,0 20.558167,-32.561523 0,-32.561523c-20.565491,0 -20.565491,32.561523 0,32.561523l0,0z" fill="#F89939"/>
    <path id="svg_134" d="m469.26593,1193.039673c20.558136,0 20.558136,-32.565674 0,-32.565674c-20.565521,0.004272 -20.565521,32.565674 0,32.565674l0,0z" fill="#F89939"/>
    <path id="svg_135" d="m900.835327,1394.628296c20.561523,0 20.561523,-32.561523 0,-32.561523s-20.562256,32.561523 0,32.561523l0,0z" fill="#F89939"/>
    <path id="svg_136" d="m835.602905,1022.969727c1.962769,-6.369141 2.390503,-13.052734 -1.396545,-18.985596c-3.624695,-5.668579 -9.225647,-9.380493 -16.010986,-9.380493c-6.789246,0 -12.393677,3.708313 -16.014771,9.380493c-3.783264,5.932861 -3.348694,12.605591 -1.382507,18.985596c2.418457,7.860596 9.147827,13.526367 17.397278,13.526367s14.974609,-5.665771 17.407532,-13.526367l0,0z" fill="#F89939"/>
    <path id="svg_137" d="m623.06781,1024.392578c1.622925,1.462402 3.239014,2.935303 4.862,4.408447c4.518799,4.112427 9.607544,6.687256 15.802246,6.687256c5.89801,0 11.622925,-2.430298 15.795593,-6.687256c4.17572,-4.260498 6.548401,-10.110229 6.548401,-16.129333c0,-6.325867 -2.517334,-11.521606 -6.548401,-16.136353c-1.439087,-1.657532 -2.882019,-3.307556 -4.31781,-4.964844c-8.242126,-9.452576 -23.768738,-8.549927 -32.142029,0c-8.372986,8.550171 -9.25354,24.40509 0,32.822083l0,0z" fill="#F89939"/>
    <path id="svg_138" d="m712.599487,1338.372314c20.561829,0 20.561829,-32.561523 0,-32.561523c-20.568787,0.00354 -20.565491,32.561523 0,32.561523l0,0z" fill="#F89939"/>
    <path id="svg_139" d="m832.890625,1235.946533c-1.598511,-4.423218 -3.988831,-10.417114 -8.581848,-12.518799c-4.264709,-1.949341 -7.517456,-2.567017 -12.043762,-1.53064c-3.337891,0.754639 -6.290649,3.246094 -8.691528,5.560547c-5.402893,5.192261 -5.646606,15.334595 0,20.487183c5.80603,5.300537 11.88092,7.022583 19.522217,5.650513c3.419434,-0.613159 7.266724,-3.234985 9.720642,-5.650513c-3.348694,1.415527 -6.690002,2.834473 -10.038696,4.246582c1.534546,0 3.065491,0 4.593201,0c6.311829,0 12.008179,-4.427246 13.680725,-10.641235c1.966187,-7.290039 -2.347656,-16.143433 -9.907715,-17.819092c3.065735,0.682617 2.004944,1.050903 0.735291,0.487427c-1.488525,-0.664307 -3.076294,-1.429932 -4.671021,-1.942261c3.649536,3.726074 7.291077,7.445068 10.940796,11.171509c-1.499634,-5.556763 -4.526184,-8.557617 -8.893066,-11.901123c1.244324,0.978516 2.474976,1.953369 3.708984,2.928589c-0.215881,-0.187866 -0.431213,-0.372192 -0.661194,-0.563477c-2.492676,-2.523804 -5.42804,-4.274902 -8.815491,-5.239502c-5.671265,-1.599487 -10.208374,-0.205811 -15.391907,2.050903c-1.973083,0.863281 -3.712952,2.80957 -5.417114,4.293457c-3.376953,2.964478 -4.975403,7.066162 -6.418091,11.200439c-2.669678,7.644043 0.435059,17.068115 5.844971,22.589233c7.496216,7.661621 18.401672,8.459595 27.548889,3.624878c0.392883,-0.191528 0.78186,-0.411743 1.146301,-0.660767c-3.903809,1.075806 -7.800781,2.162964 -11.711487,3.235352c10.883789,0.361084 19.985291,-7.185425 24.462036,-16.84021c-4.996338,3.924072 -9.982178,7.842163 -14.975098,11.763184c7.057861,-2.498413 13.005432,-6.242798 16.852661,-12.933716c1.573303,-2.751099 2.195679,-5.166748 3.136353,-7.878174c-0.89447,2.180908 -1.803345,4.365479 -2.697815,6.546265c0.010498,-0.029053 0.017822,-0.057861 0.035339,-0.086792c-3.207397,3.278442 -6.417969,6.549683 -9.63208,9.835693c0.010498,0 0.010498,-0.003662 0.021118,-0.006958c-13.461365,-7.896851 -26.930359,-15.775513 -40.391968,-23.668701c0.028503,0.411743 -0.07428,0.859375 -0.123413,1.271118c-0.799438,6.827759 3.362366,14.843628 7.909851,19.486938c5.042358,5.15271 11.955078,8.07019 19.080139,8.07019s14.055969,-2.920776 19.087708,-8.07019c4.536499,-4.63623 8.709106,-12.670288 7.899414,-19.486938c-0.332458,-2.849121 -0.290222,-5.842285 -1.131836,-8.561523c-2.832336,-9.210693 -9.472778,-16.533569 -18.747803,-19.140259c-4.755737,-1.303711 -9.511719,-1.303711 -14.264099,0c-4.543823,1.299805 -8.500671,3.653931 -11.845947,7.051758c-5.848267,4.744629 -7.365051,12.821533 -7.930908,19.859253c-0.664673,8.326172 3.192871,15.197632 8.348389,21.137329c-2.1427,-8.308472 -4.296143,-16.609863 -6.446228,-24.907104c-0.190735,1.292725 -0.448853,2.556396 -0.813232,3.812988c-1.470947,4.971924 -1.983704,10.333862 -0.208374,15.349243c0,-4.195801 0,-8.394775 0,-12.601685c-0.07428,0.213135 -0.145142,0.411743 -0.219299,0.621094c0.774414,-1.866577 1.545288,-3.733276 2.32312,-5.603882c-0.098755,0.216919 -0.187439,0.42627 -0.275818,0.642456c13.853943,1.852783 27.69751,3.694214 41.551514,5.546387c-1.343689,-3.856201 -2.987915,-8.185669 -6.170471,-10.965698c-1.764404,-1.549072 -3.695068,-3.665283 -5.67157,-4.528076c3.065735,7.676392 6.120605,15.353149 9.183044,23.033203c0.077698,-0.361206 0.152039,-0.722168 0.229614,-1.07959c-2.807312,3.7229 -5.611633,7.448853 -8.419067,11.178711c4.356445,-3.343628 7.390076,-6.34729 8.886108,-11.897461c-3.64563,3.718994 -7.29126,7.445557 -10.940857,11.164307c1.601868,-0.512451 3.182556,-1.278198 4.674805,-1.945923c1.269409,-0.549072 2.333923,-0.184326 -0.731567,0.498291c6.113647,-1.357666 10.413269,-7.79541 10.413269,-13.966675c0,-7.900146 -6.449524,-14.489746 -14.186462,-14.489746c-2.747437,0 -5.696655,-0.230957 -8.35907,0.520264c-2.500122,0.696777 -4.448425,1.946045 -6.301147,3.765625c-1.463989,1.437012 3.41571,-2.480225 1.548828,-1.263672c-1.919922,1.249268 3.684509,-1.274658 1.279846,-0.577393c2.846619,-0.812622 5.884216,-0.209839 8.090637,1.797974c0,6.831299 0,13.65918 0,20.480469c0.240356,-0.227539 0.484375,-0.459229 0.724731,-0.689941c-2.015747,2.01123 -4.518921,3.018311 -7.524841,3.029541c-2.39386,-0.660889 -4.780273,-1.314697 -7.167358,-1.978882c-1.428223,-1.484009 -2.871277,-2.97168 -4.310425,-4.459473c-0.643555,-2.437134 -1.290527,-4.870605 -1.934143,-7.308228c0.123901,1.404907 0.275818,0.578003 0.463196,-2.451416c-0.077698,0.631592 -0.275757,1.256714 -0.445557,1.866821c-2.683899,9.774292 4.830139,19.732422 14.724182,19.732422c9.303345,0 18.242004,-10.081177 14.741455,-19.732422l0,0z" fill="#F89939"/>
    <path id="svg_140" d="m431.084259,1301.109741c-5.671753,2.650269 -10.710663,9.676758 -11.969391,15.757446c-1.269592,6.145508 -0.696716,9.961914 0.332336,16.172241c1.096405,3.997192 3.076355,7.467163 5.940674,10.413818c4.310364,4.401245 10.240326,6.907104 16.336365,6.907104c4.168762,-0.014526 8.058319,-1.087036 11.6651,-3.217285c4.73468,-2.841553 9.649689,-8.35498 10.611511,-14.103638c0.176941,-1.029053 0.311035,-2.065308 0.661163,-3.054932c-0.792053,1.917358 -1.584045,3.842041 -2.379639,5.766479c0.063416,-0.173096 0.14856,-0.324585 0.240387,-0.47998c-1.233917,1.63208 -2.474945,3.260498 -3.709015,4.90332c0.084564,-0.130249 0.190735,-0.234497 0.314728,-0.325195c-1.609192,1.271606 -3.207092,2.531494 -4.819794,3.802368c0.070709,-0.036133 0.12735,-0.072266 0.190735,-0.112061c-1.898743,0.819946 -3.797577,1.643311 -5.689362,2.455444c0.144928,-0.072388 0.297363,-0.111938 0.456268,-0.133545c-2.125031,0.29248 -4.239746,0.581543 -6.354187,0.880859c0.088379,-0.010376 0.180389,-0.021729 0.265411,-0.028687c6.573486,-0.635864 12.13559,-2.256714 16.947906,-7.170776c6.03952,-6.170776 8.429901,-15.38208 6.159576,-23.809326c-1.647583,-6.113159 -5.657532,-11.417725 -11.014587,-14.620239c-3.733826,-2.216919 -7.768646,-3.329102 -12.092896,-3.34375c-4.324585,0.010986 -8.363037,1.130249 -12.093292,3.340332l0,0z" fill="#F89939"/>
    <path id="svg_141" d="m923.790833,705.685608c3.076294,0 3.076294,-4.870728 0,-4.870728s-3.076477,4.870728 0,4.870728l0,0z" fill="#F89939"/>
    <path id="svg_142" d="m914.611572,742.970215c20.558167,0 20.558167,-32.561707 0,-32.561707c-20.569031,0 -20.569031,32.561707 0,32.561707l0,0z" fill="#F89939"/>
   </g>
  </g>
 </g>
</svg>